<svg width="571" height="727" viewBox="0 0 571 727" fill="none" xmlns="http://www.w3.org/2000/svg">
<mask id="path-1-outside-1_449_15" maskUnits="userSpaceOnUse" x="-0.0179116" y="0.772468" width="570.604" height="726.769" fill="black">
<rect fill="white" x="-0.0179116" y="0.772468" width="570.604" height="726.769"/>
<path fill-rule="evenodd" clip-rule="evenodd" d="M495.242 74L496.02 290.284L496.448 409.219L189.544 410.178C165.474 410.253 153.477 421.105 153.555 442.733L153.847 523.84C153.924 545.468 165.999 556.245 190.069 556.169L496.973 555.211L497.323 652.539L190.419 653.497C148.295 653.629 117.574 645.073 98.2551 627.831C79.3399 610.948 76.6898 583.559 76.5537 545.71L76.1065 421.346L75.4747 319.406L74.0024 75.3157L495.242 74ZM243.237 280.259C243.315 301.888 231.318 312.74 207.248 312.815L195.212 312.852C171.141 312.928 159.067 302.151 158.989 280.523L158.6 172.38L242.848 172.117L243.237 280.259ZM411.675 263.512C411.753 285.14 399.756 295.992 375.685 296.067L363.65 296.105C339.579 296.18 327.505 285.403 327.427 263.775L327.096 171.854L411.344 171.591L411.675 263.512Z"/>
</mask>
<path fill-rule="evenodd" clip-rule="evenodd" d="M495.242 74L496.02 290.284L496.448 409.219L189.544 410.178C165.474 410.253 153.477 421.105 153.555 442.733L153.847 523.84C153.924 545.468 165.999 556.245 190.069 556.169L496.973 555.211L497.323 652.539L190.419 653.497C148.295 653.629 117.574 645.073 98.2551 627.831C79.3399 610.948 76.6898 583.559 76.5537 545.71L76.1065 421.346L75.4747 319.406L74.0024 75.3157L495.242 74ZM243.237 280.259C243.315 301.888 231.318 312.74 207.248 312.815L195.212 312.852C171.141 312.928 159.067 302.151 158.989 280.523L158.6 172.38L242.848 172.117L243.237 280.259ZM411.675 263.512C411.753 285.14 399.756 295.992 375.685 296.067L363.65 296.105C339.579 296.18 327.505 285.403 327.427 263.775L327.096 171.854L411.344 171.591L411.675 263.512Z" fill="#052568"/>
<path d="M495.242 74L568.242 73.772L567.979 0.772468L494.98 1.00047L495.242 74ZM496.02 290.284L569.02 290.056L496.02 290.284ZM75.4747 319.406L2.47594 319.812L2.47602 319.824L75.4747 319.406ZM74.0024 75.3157L73.7399 2.31614L0.562255 2.5447L1.00363 75.7215L74.0024 75.3157ZM207.248 312.815L206.985 239.815L207.248 312.815ZM243.237 280.259L316.237 280.031L243.237 280.259ZM242.848 172.117L315.848 171.889L315.585 98.8898L242.586 99.1178L242.848 172.117ZM158.6 172.38L158.338 99.3809L85.3382 99.6089L85.6007 172.608L158.6 172.38ZM158.989 280.523L85.9896 280.751L158.989 280.523ZM195.212 312.852L195.475 385.852L195.212 312.852ZM375.685 296.067L375.423 223.068L375.685 296.067ZM411.675 263.512L338.675 263.74L411.675 263.512ZM411.344 171.591L484.344 171.363L484.081 98.3635L411.082 98.5915L411.344 171.591ZM327.096 171.854L326.834 98.8547L253.834 99.0827L254.097 172.082L327.096 171.854ZM327.427 263.775L400.426 263.547L327.427 263.775ZM363.65 296.105L363.912 369.104L363.65 296.105ZM496.973 555.211L569.972 554.983L569.71 481.983L496.71 482.211L496.973 555.211ZM497.323 652.539L497.585 725.538L570.585 725.31L570.322 652.311L497.323 652.539ZM190.419 653.497L190.157 580.498L190.419 653.497ZM76.5537 545.71L3.55408 545.938L76.5537 545.71ZM76.1065 421.346L149.106 421.118L149.106 421.023L149.105 420.928L76.1065 421.346ZM496.448 409.219L496.71 482.219L569.71 481.991L569.447 408.991L496.448 409.219ZM189.544 410.178L189.807 483.177L189.544 410.178ZM153.555 442.733L80.5552 442.961L153.555 442.733ZM153.847 523.84L226.846 523.612L153.847 523.84ZM190.069 556.169L190.332 629.169L190.069 556.169ZM422.243 74.228L423.02 290.512L569.02 290.056L568.242 73.772L422.243 74.228ZM148.474 319L147.001 74.9099L1.00363 75.7215L2.47594 319.812L148.474 319ZM74.2649 148.315L495.505 147L494.98 1.00047L73.7399 2.31614L74.2649 148.315ZM207.51 385.814C228.985 385.747 258.706 380.999 283.284 358.767C309.342 335.195 316.324 304.236 316.237 280.031L170.238 280.487C170.228 277.911 171.251 263.192 185.313 250.472C197.894 239.092 209.581 239.807 206.985 239.815L207.51 385.814ZM316.237 280.031L315.848 171.889L169.849 172.345L170.238 280.487L316.237 280.031ZM242.586 99.1178L158.338 99.3809L158.863 245.38L243.111 245.117L242.586 99.1178ZM85.6007 172.608L85.9896 280.751L231.989 280.295L231.6 172.152L85.6007 172.608ZM85.9896 280.751C86.0767 304.955 93.2811 335.87 119.508 359.278C144.246 381.357 174 385.919 195.475 385.852L194.95 239.853C192.354 239.861 204.035 239.072 216.698 250.374C230.851 263.006 231.98 277.718 231.989 280.295L85.9896 280.751ZM195.475 385.852L207.51 385.814L206.985 239.815L194.95 239.853L195.475 385.852ZM375.948 369.067C397.422 369 427.143 364.252 451.721 342.019C477.78 318.448 484.761 287.489 484.674 263.284L338.675 263.74C338.666 261.164 339.688 246.445 353.75 233.725C366.332 222.344 378.019 223.06 375.423 223.068L375.948 369.067ZM484.674 263.284L484.344 171.363L338.345 171.819L338.675 263.74L484.674 263.284ZM411.082 98.5915L326.834 98.8547L327.359 244.854L411.607 244.591L411.082 98.5915ZM254.097 172.082L254.427 264.003L400.426 263.547L400.096 171.626L254.097 172.082ZM254.427 264.003C254.514 288.208 261.719 319.122 287.946 342.531C312.683 364.609 342.438 369.171 363.912 369.104L363.387 223.105C360.791 223.113 372.473 222.325 385.136 233.627C399.289 246.259 400.417 260.971 400.426 263.547L254.427 264.003ZM363.912 369.104L375.948 369.067L375.423 223.068L363.387 223.105L363.912 369.104ZM423.973 555.439L424.323 652.767L570.322 652.311L569.972 554.983L423.973 555.439ZM497.06 579.539L190.157 580.498L190.682 726.497L497.585 725.538L497.06 579.539ZM190.157 580.498C173.783 580.549 162.563 578.868 155.339 576.856C148.299 574.896 146.463 573.033 146.85 573.379L49.6602 682.283C88.6647 717.095 141.173 726.652 190.682 726.497L190.157 580.498ZM146.85 573.379C149.051 575.343 150.614 577.542 151.507 579.24C152.272 580.694 152.086 580.906 151.621 578.819C151.139 576.652 150.574 573.005 150.169 567.14C149.765 561.29 149.585 554.287 149.553 545.482L3.55408 545.938C3.62321 565.16 4.19879 588.392 9.103 610.447C14.3673 634.12 25.5109 660.729 49.6602 682.283L146.85 573.379ZM149.553 545.482L149.106 421.118L3.10685 421.574L3.55408 545.938L149.553 545.482ZM496.185 336.219L189.282 337.178L189.807 483.177L496.71 482.219L496.185 336.219ZM189.282 337.178C167.807 337.245 138.086 341.993 113.508 364.225C87.4501 387.797 80.4681 418.756 80.5552 442.961L226.554 442.505C226.564 445.081 225.541 459.8 211.479 472.52C198.898 483.901 187.211 483.185 189.807 483.177L189.282 337.178ZM80.5552 442.961L80.8469 524.068L226.846 523.612L226.554 442.505L80.5552 442.961ZM80.8469 524.068C80.9339 548.272 88.1383 579.187 114.366 602.595C139.103 624.674 168.857 629.236 190.332 629.169L189.807 483.17C187.211 483.178 198.893 482.389 211.555 493.691C225.709 506.323 226.837 521.035 226.846 523.612L80.8469 524.068ZM190.332 629.169L497.235 628.21L496.71 482.211L189.807 483.17L190.332 629.169ZM423.02 290.512L423.448 409.447L569.447 408.991L569.02 290.056L423.02 290.512ZM149.105 420.928L148.473 318.988L2.47602 319.824L3.10778 421.764L149.105 420.928Z" fill="#E9ECF3" mask="url(#path-1-outside-1_449_15)"/>
</svg>
